<svg id="visual" viewBox="0 0 960 300" width="960" height="300" xmlns="http://www.w3.org/2000/svg" xmlns:xlink="http://www.w3.org/1999/xlink" version="1.1"><rect x="0" y="0" width="960" height="300" fill="#141414"></rect><path d="M0 90L16 90C32 90 64 90 96 90.8C128 91.7 160 93.3 192 90.8C224 88.3 256 81.7 288 78.7C320 75.7 352 76.3 384 72C416 67.7 448 58.3 480 54.2C512 50 544 51 576 51.3C608 51.7 640 51.3 672 61C704 70.7 736 90.3 768 96.2C800 102 832 94 864 82.5C896 71 928 56 944 48.5L960 41L960 301L944 301C928 301 896 301 864 301C832 301 800 301 768 301C736 301 704 301 672 301C640 301 608 301 576 301C544 301 512 301 480 301C448 301 416 301 384 301C352 301 320 301 288 301C256 301 224 301 192 301C160 301 128 301 96 301C64 301 32 301 16 301L0 301Z" fill="#141414"></path><path d="M0 140L16 140.3C32 140.7 64 141.3 96 143.7C128 146 160 150 192 141.2C224 132.3 256 110.7 288 104C320 97.3 352 105.7 384 112.7C416 119.7 448 125.3 480 132.3C512 139.3 544 147.7 576 143.5C608 139.3 640 122.7 672 121.5C704 120.3 736 134.7 768 133C800 131.3 832 113.7 864 113.7C896 113.7 928 131.3 944 140.2L960 149L960 301L944 301C928 301 896 301 864 301C832 301 800 301 768 301C736 301 704 301 672 301C640 301 608 301 576 301C544 301 512 301 480 301C448 301 416 301 384 301C352 301 320 301 288 301C256 301 224 301 192 301C160 301 128 301 96 301C64 301 32 301 16 301L0 301Z" fill="#141414"></path><path d="M0 138L16 141.3C32 144.7 64 151.3 96 157.7C128 164 160 170 192 169.5C224 169 256 162 288 158C320 154 352 153 384 156.5C416 160 448 168 480 171C512 174 544 172 576 171.5C608 171 640 172 672 169.8C704 167.7 736 162.3 768 164.8C800 167.3 832 177.7 864 183.2C896 188.7 928 189.3 944 189.7L960 190L960 301L944 301C928 301 896 301 864 301C832 301 800 301 768 301C736 301 704 301 672 301C640 301 608 301 576 301C544 301 512 301 480 301C448 301 416 301 384 301C352 301 320 301 288 301C256 301 224 301 192 301C160 301 128 301 96 301C64 301 32 301 16 301L0 301Z" fill="#131313"></path><path d="M0 194L16 198.8C32 203.7 64 213.3 96 219.3C128 225.3 160 227.7 192 229.2C224 230.7 256 231.3 288 227.8C320 224.3 352 216.7 384 209.3C416 202 448 195 480 196C512 197 544 206 576 211.7C608 217.3 640 219.7 672 223C704 226.3 736 230.7 768 231.7C800 232.7 832 230.3 864 230C896 229.7 928 231.3 944 232.2L960 233L960 301L944 301C928 301 896 301 864 301C832 301 800 301 768 301C736 301 704 301 672 301C640 301 608 301 576 301C544 301 512 301 480 301C448 301 416 301 384 301C352 301 320 301 288 301C256 301 224 301 192 301C160 301 128 301 96 301C64 301 32 301 16 301L0 301Z" fill="#121212"></path><path d="M0 256L16 257.2C32 258.3 64 260.7 96 257.7C128 254.7 160 246.3 192 247C224 247.7 256 257.3 288 259.7C320 262 352 257 384 254.2C416 251.3 448 250.7 480 248.3C512 246 544 242 576 240.5C608 239 640 240 672 245.8C704 251.7 736 262.3 768 261.5C800 260.7 832 248.3 864 244.3C896 240.3 928 244.7 944 246.8L960 249L960 301L944 301C928 301 896 301 864 301C832 301 800 301 768 301C736 301 704 301 672 301C640 301 608 301 576 301C544 301 512 301 480 301C448 301 416 301 384 301C352 301 320 301 288 301C256 301 224 301 192 301C160 301 128 301 96 301C64 301 32 301 16 301L0 301Z" fill="#111111"></path></svg>