<svg id="visual" viewBox="0 0 960 300" width="960" height="300" xmlns="http://www.w3.org/2000/svg" xmlns:xlink="http://www.w3.org/1999/xlink" version="1.1"><rect x="0" y="0" width="960" height="300" fill="#141414"></rect><path d="M0 153L16 161.5C32 170 64 187 96 194.2C128 201.3 160 198.7 192 197.2C224 195.7 256 195.3 288 192.5C320 189.7 352 184.3 384 181.8C416 179.3 448 179.7 480 175C512 170.3 544 160.7 576 159.2C608 157.7 640 164.3 672 163.8C704 163.3 736 155.7 768 155.5C800 155.3 832 162.7 864 162C896 161.3 928 152.7 944 148.3L960 144L960 0L944 0C928 0 896 0 864 0C832 0 800 0 768 0C736 0 704 0 672 0C640 0 608 0 576 0C544 0 512 0 480 0C448 0 416 0 384 0C352 0 320 0 288 0C256 0 224 0 192 0C160 0 128 0 96 0C64 0 32 0 16 0L0 0Z" fill="#141414"></path><path d="M0 139L16 143.5C32 148 64 157 96 152.8C128 148.7 160 131.3 192 123.7C224 116 256 118 288 118.5C320 119 352 118 384 122.7C416 127.3 448 137.7 480 145.5C512 153.3 544 158.7 576 156.2C608 153.7 640 143.3 672 140.2C704 137 736 141 768 146.8C800 152.7 832 160.3 864 163C896 165.7 928 163.3 944 162.2L960 161L960 0L944 0C928 0 896 0 864 0C832 0 800 0 768 0C736 0 704 0 672 0C640 0 608 0 576 0C544 0 512 0 480 0C448 0 416 0 384 0C352 0 320 0 288 0C256 0 224 0 192 0C160 0 128 0 96 0C64 0 32 0 16 0L0 0Z" fill="#171717"></path><path d="M0 110L16 109C32 108 64 106 96 106C128 106 160 108 192 105.2C224 102.3 256 94.7 288 92.7C320 90.7 352 94.3 384 95.2C416 96 448 94 480 99C512 104 544 116 576 122.2C608 128.3 640 128.7 672 123.3C704 118 736 107 768 99.5C800 92 832 88 864 93.7C896 99.3 928 114.7 944 122.3L960 130L960 0L944 0C928 0 896 0 864 0C832 0 800 0 768 0C736 0 704 0 672 0C640 0 608 0 576 0C544 0 512 0 480 0C448 0 416 0 384 0C352 0 320 0 288 0C256 0 224 0 192 0C160 0 128 0 96 0C64 0 32 0 16 0L0 0Z" fill="#191919"></path><path d="M0 64L16 68.8C32 73.7 64 83.3 96 88.3C128 93.3 160 93.7 192 91.7C224 89.7 256 85.3 288 78.2C320 71 352 61 384 63.3C416 65.7 448 80.3 480 81C512 81.7 544 68.3 576 63.2C608 58 640 61 672 66.3C704 71.7 736 79.3 768 79C800 78.7 832 70.3 864 68.5C896 66.7 928 71.3 944 73.7L960 76L960 0L944 0C928 0 896 0 864 0C832 0 800 0 768 0C736 0 704 0 672 0C640 0 608 0 576 0C544 0 512 0 480 0C448 0 416 0 384 0C352 0 320 0 288 0C256 0 224 0 192 0C160 0 128 0 96 0C64 0 32 0 16 0L0 0Z" fill="#1b1b1b"></path><path d="M0 31L16 33.3C32 35.7 64 40.3 96 41.5C128 42.7 160 40.3 192 41.7C224 43 256 48 288 50.3C320 52.7 352 52.3 384 47.7C416 43 448 34 480 33C512 32 544 39 576 43.2C608 47.3 640 48.7 672 48.2C704 47.7 736 45.3 768 46.2C800 47 832 51 864 53.2C896 55.3 928 55.7 944 55.8L960 56L960 0L944 0C928 0 896 0 864 0C832 0 800 0 768 0C736 0 704 0 672 0C640 0 608 0 576 0C544 0 512 0 480 0C448 0 416 0 384 0C352 0 320 0 288 0C256 0 224 0 192 0C160 0 128 0 96 0C64 0 32 0 16 0L0 0Z" fill="#1e1e1e"></path></svg>